<svg xmlns="http://www.w3.org/2000/svg" width="1400" height="520" viewBox="0 0 1400 520" role="img" aria-labelledby="title desc">
  <title id="title">Meilleur du Meilleur</title>
  <desc id="desc">Le meilleur du meilleur, selon Reddit. Comparateur de produits basé sur les avis Reddit.</desc>
  <rect width="1400" height="520" fill="#fdf9f5"/>
  <rect width="1400" height="96" fill="#ff4500"/>
  <g transform="translate(78 27)">
    <rect width="42" height="42" rx="11" fill="#fff"/>
    <path d="M21 8 L32 22 L25 22 L25 33 L17 33 L17 22 L10 22 Z" fill="#ff4500" stroke="#ff4500" stroke-width="2.4" stroke-linejoin="round"/>
  </g>
  <text x="140" y="61" fill="#fff" font-family="-apple-system,BlinkMacSystemFont,'Segoe UI',Roboto,Helvetica,Arial,sans-serif" font-size="32" font-weight="700">Meilleur du Meilleur</text>
  <g transform="translate(78 188)">
    <text fill="#241a15" font-family="-apple-system,BlinkMacSystemFont,'Segoe UI',Roboto,Helvetica,Arial,sans-serif" font-size="62" font-weight="800">
      <tspan x="0" y="0">Le meilleur du meilleur, selon </tspan>
      <tspan fill="#ff4500">Reddit</tspan>
    </text>
    <g transform="translate(1058 -48) scale(3.2)">
      <circle cx="10" cy="10" r="10" fill="#ff4500"/>
      <path fill="#fff" d="M16.7 10c0-.8-.65-1.45-1.45-1.45-.4 0-.75.16-1.01.41-1-.72-2.37-1.18-3.9-1.24l.66-3.12 2.17.46a1.04 1.04 0 1 0 .12-.62l-2.42-.51a.31.31 0 0 0-.37.24l-.74 3.48c-1.55.05-2.95.51-3.96 1.24a1.45 1.45 0 1 0-1.6 2.37 2.6 2.6 0 0 0-.03.42c0 2.15 2.5 3.9 5.6 3.9 3.09 0 5.6-1.75 5.6-3.9 0-.14-.01-.28-.03-.42.5-.26.84-.77.84-1.35zM6.67 11.03a1.03 1.03 0 1 1 2.06 0 1.03 1.03 0 0 1-2.06 0zm5.75 2.72c-.7.7-2.05.76-2.44.76-.4 0-1.74-.05-2.44-.76a.27.27 0 0 1 .38-.38c.44.44 1.4.6 2.06.6.67 0 1.62-.16 2.07-.6a.27.27 0 1 1 .38.38zm-.18-1.7a1.03 1.03 0 1 1 0-2.06 1.03 1.03 0 0 1 0 2.06z"/>
    </g>
    <text fill="#6b5d54" font-family="-apple-system,BlinkMacSystemFont,'Segoe UI',Roboto,Helvetica,Arial,sans-serif" font-size="34">
      <tspan x="0" y="74">On lit des milliers d'avis d'utilisateurs Reddit et on les résume en une note</tspan>
      <tspan x="0" y="126">claire, catégorie par catégorie. Vous achetez le bon produit, sans y passer la</tspan>
      <tspan x="0" y="178">soirée.</tspan>
    </text>
    <text x="0" y="238" fill="#6b5d54" font-family="-apple-system,BlinkMacSystemFont,'Segoe UI',Roboto,Helvetica,Arial,sans-serif" font-size="26">Mis à jour chaque semaine.</text>
  </g>
</svg>
